<?xml version="1.0" encoding="UTF-8"?><svg id="Layer_2" xmlns="http://www.w3.org/2000/svg" viewBox="0 0 24 24"><g id="Layer_1-2"><g id="Users_Natural-Close-Up-Single-User-Neutral_single-neutral-circle"><g id="Group_566"><g id="Light_566"><path id="Oval_869" d="M12,23.5c6.35,0,11.5-5.15,11.5-11.5S18.35.5,12,.5.5,5.65.5,12s5.15,11.5,11.5,11.5Z" style="fill:none; stroke:#010101; stroke-linecap:round; stroke-linejoin:round;"/><path id="Shape_2343" d="M3.96,20.23c1.71-.99,3.52-1.78,5.41-2.35.84-.31.93-2.23.33-2.89-.87-.95-1.6-2.07-1.6-4.77-.1-1.09.27-2.16,1.01-2.96.75-.8,1.8-1.24,2.89-1.21,1.09-.03,2.14.41,2.89,1.21.75.8,1.11,1.87,1.01,2.96,0,2.7-.73,3.81-1.6,4.77-.6.66-.51,2.58.33,2.89,1.89.57,3.71,1.36,5.41,2.35" style="fill:none; stroke:#010101; stroke-linecap:round; stroke-linejoin:round;"/></g></g></g></g></svg>